<svg width="20" height="20" fill="none" xmlns="http://www.w3.org/2000/svg"><path d="m19.556 8.26-2.294-.564a7.575 7.575 0 0 0-.53-1.26l1.069-1.78a.586.586 0 0 0-.088-.716l-1.657-1.657a.584.584 0 0 0-.716-.088l-1.783 1.068a7.547 7.547 0 0 0-1.253-.525L11.74.444A.586.586 0 0 0 11.172 0H8.828a.585.585 0 0 0-.568.444s-.39 1.601-.564 2.294c-.46.145-.905.335-1.33.566l-1.848-1.11a.588.588 0 0 0-.716.089L2.145 3.94a.586.586 0 0 0-.088.716L3.2 6.566a7.55 7.55 0 0 0-.462 1.128L.444 8.26A.586.586 0 0 0 0 8.828v2.344c0 .269.183.503.444.568l2.295.564c.139.441.32.87.539 1.281l-1.023 1.706a.586.586 0 0 0 .088.715L4 17.663c.19.19.485.226.716.089l1.709-1.025c.407.217.832.396 1.271.535l.564 2.294c.065.26.3.444.568.444h2.344a.586.586 0 0 0 .568-.444l.564-2.294a7.442 7.442 0 0 0 1.3-.552l1.736 1.042c.23.138.526.102.716-.088l1.657-1.658a.586.586 0 0 0 .088-.715l-1.054-1.755c.208-.395.38-.807.515-1.232l2.294-.564a.586.586 0 0 0 .444-.568V8.828a.586.586 0 0 0-.444-.568ZM10 14.102A4.107 4.107 0 0 1 5.898 10 4.107 4.107 0 0 1 10 5.898 4.107 4.107 0 0 1 14.102 10 4.107 4.107 0 0 1 10 14.102Z" fill="#fff"/></svg>